Coordinates
version=1
nRows=19
nColumns=24
inDegrees=yes

Units are S.I. units (second, meters, Newtons, ...)
Angles are in degrees.

endheader
time	pelvis_tilt	pelvis_list	pelvis_rotation	pelvis_tx	pelvis_ty	pelvis_tz	hip_flexion_r	hip_adduction_r	hip_rotation_r	knee_angle_r	ankle_angle_r	subtalar_angle_r	mtp_angle_r	hip_flexion_l	hip_adduction_l	hip_rotation_l	knee_angle_l	ankle_angle_l	subtalar_angle_l	mtp_angle_l	lumbar_extension	lumbar_bending	lumbar_rotation
      0.46000000	     -3.39492517	     -1.43459484	     -3.46275923	      0.27108215	      0.99067796	      0.00590431	     17.97014817	      0.42619994	      0.76528943	      8.30182392	     -5.59349044	      0.00000000	      0.00000000	     -4.56107157	      0.06388456	      0.17765533	    -14.50046507	     17.77618904	      0.00000000	      0.00000000	     -8.55769523	      0.80997579	     -3.23253163
      0.47000000	     -3.39120016	     -1.51205040	     -3.17714889	      0.27217087	      0.99008763	      0.00706454	     17.90389253	      0.60476294	      1.36531869	      7.59707109	     -5.70680232	      0.00000000	      0.00000000	     -4.91477708	     -0.11375222	      0.38036695	    -14.81357077	     17.70453223	      0.00000000	      0.00000000	     -8.45901411	      1.04076391	     -3.51655723
      0.48000000	     -3.28910048	     -1.98204430	     -3.00269202	      0.27299657	      0.98959482	      0.00840931	     18.11561547	      1.26325030	      1.88320678	      5.94451068	     -5.07631368	      0.00000000	      0.00000000	     -5.04573227	     -0.70688030	      0.45761210	    -15.91934877	     17.96738319	      0.00000000	      0.00000000	     -8.53925267	      1.70441252	     -3.51509997
      0.49000000	     -3.25285401	     -2.05762961	     -2.64107452	      0.27431778	      0.98918298	      0.00960669	     18.02405388	      1.41320615	      2.58078194	      5.09731882	     -5.42216672	      0.00000000	      0.00000000	     -5.35775351	     -0.91062516	      0.69372122	    -16.36933039	     17.79183781	      0.00000000	      0.00000000	     -8.42657860	      1.93855491	     -3.84143682
      0.50000000	     -3.17231029	     -2.52719273	     -2.39510725	      0.27531352	      0.98880161	      0.01101742	     18.17836791	      2.04885588	      3.01612256	      3.61655257	     -5.50109818	      0.00000000	      0.00000000	     -5.23895899	     -1.53440050	      0.78052309	    -17.93058064	     17.88552741	      0.00000000	      0.00000000	     -8.43707107	      2.59266542	     -3.84812168
      0.51000000	     -3.08354681	     -2.66517321	     -2.07052259	      0.27667951	      0.98861181	      0.01212124	     18.14495908	      2.25626299	      3.53849592	      2.55604194	     -5.94961369	      0.00000000	      0.00000000	     -5.31789799	     -1.79296091	      0.96067482	    -18.99133627	     17.55972520	      0.00000000	      0.00000000	     -8.37279735	      2.91655461	     -4.02208770
      0.52000000	     -3.16939338	     -2.96443467	     -1.71311956	      0.27794485	      0.98822872	      0.01327323	     18.37187292	      2.61543381	      3.85833527	      1.33581770	     -6.18969157	      0.00000000	      0.00000000	     -4.93940096	     -2.25168911	      1.09804003	    -20.61325513	     17.44317252	      0.00000000	      0.00000000	     -8.11694715	      3.42170923	     -4.16954432
      0.53000000	     -2.97549076	     -3.10484858	     -1.43309949	      0.27949127	      0.98845968	      0.01435395	     18.22043869	      2.79719099	      4.19108661	      0.28131391	     -6.45883846	      0.00000000	      0.00000000	     -4.96855125	     -2.51925664	      1.14945533	    -21.96381530	     16.83516461	      0.00000000	      0.00000000	     -8.15145479	      3.75200261	     -4.23709922
      0.54000000	     -2.83263876	     -3.32223937	     -1.16081954	      0.28095947	      0.98870982	      0.01562373	     18.18345003	      3.06825995	      4.39878081	     -0.92257765	     -6.48393241	      0.00000000	      0.00000000	     -4.77274235	     -2.89602925	      1.19835690	    -23.64000404	     16.17466044	      0.00000000	      0.00000000	     -8.13842808	      4.14251035	     -4.22909017
      0.55000000	     -2.86582882	     -3.45803535	     -0.93675640	      0.28235395	      0.98882390	      0.01679402	     18.42076355	      3.25941346	      4.55089574	     -2.32587854	     -6.25574887	      0.00000000	      0.00000000	     -4.25345436	     -3.17431093	      1.25210971	    -25.53798784	     15.38392292	      0.00000000	      0.00000000	     -7.93345654	      4.46822262	     -4.18344224
      0.56000000	     -2.55714047	     -3.45306222	     -0.79691064	      0.28390656	      0.98970366	      0.01795307	     18.03195417	      3.29366507	      4.92775873	     -3.19879718	     -6.39307239	      0.00000000	      0.00000000	     -4.20878806	     -3.26387663	      1.39744058	    -27.14242410	     14.15520520	      0.00000000	      0.00000000	     -8.12202982	      4.63449472	     -4.01521196
      0.57000000	     -2.41570415	     -3.69848046	     -0.64010838	      0.28537731	      0.99028544	      0.01941247	     18.11106776	      3.65837676	      4.83393634	     -4.78797414	     -5.54851585	      0.00000000	      0.00000000	     -3.65897207	     -3.73650771	      1.07637018	    -29.33738058	     12.76103161	      0.00000000	      0.00000000	     -8.12451300	      5.05988633	     -3.86031022
      0.58000000	     -2.30429578	     -3.76806306	     -0.55211646	      0.28679038	      0.99098737	      0.02083195	     18.07753235	      3.84897748	      4.92242428	     -6.09048541	     -4.94955010	      0.00000000	      0.00000000	     -3.04064302	     -3.98183542	      0.98947117	    -31.51781276	     11.14862203	      0.00000000	      0.00000000	     -8.11258751	      5.30008381	     -3.63271583
      0.59000000	     -2.23779416	     -3.80978637	     -0.45300424	      0.28794250	      0.99165671	      0.02228344	     18.09548144	      4.02288049	      4.97663520	     -7.39386488	     -4.22288748	      0.00000000	      0.00000000	     -2.18601620	     -4.22442546	      0.87595135	    -33.94732703	      9.34468456	      0.00000000	      0.00000000	     -8.08843503	      5.51646933	     -3.40547306
      0.60000000	     -1.93248373	     -3.89775427	     -0.34739204	      0.28921615	      0.99279882	      0.02377265	     17.61132753	      4.24074048	      4.99708435	     -8.21464046	     -3.68403182	      0.00000000	      0.00000000	     -1.57200513	     -4.54322770	      0.76793887	    -36.28792837	      7.19681361	      0.00000000	      0.00000000	     -8.33763118	      5.77758508	     -3.15095885
      0.61000000	     -1.86386703	     -4.00187575	     -0.21290927	      0.29011957	      0.99349415	      0.02521713	     17.47179346	      4.47661836	      4.87092778	     -9.19895614	     -2.93808752	      0.00000000	      0.00000000	     -0.47282391	     -4.89174507	      0.72893400	    -38.97395806	      5.15808489	      0.00000000	      0.00000000	     -8.35866475	      6.06218352	     -2.92896288
      0.62000000	     -1.51215234	     -4.06831341	     -0.07742785	      0.29101814	      0.99470239	      0.02653848	     16.79520174	      4.64851599	      4.76980217	     -9.68079714	     -2.38984256	      0.00000000	      0.00000000	      0.31161859	     -5.19618247	      0.70861615	    -41.50740438	      2.78087603	      0.00000000	      0.00000000	     -8.72263634	      6.31417408	     -2.67538786
      0.63000000	     -1.24120864	     -4.18668358	      0.11282955	      0.29171447	      0.99574104	      0.02773607	     16.17188520	      4.85077520	      4.47142855	    -10.08993706	     -1.79800944	      0.00000000	      0.00000000	      1.33279085	     -5.57720573	      0.73139114	    -44.20858835	      0.44877713	      0.00000000	      0.00000000	     -9.01149395	      6.63280060	     -2.46133285
      0.64000000	     -0.98143258	     -4.27984030	      0.35450760	      0.29207502	      0.99672265	      0.02879454	     15.51843594	      4.99397857	      4.18696095	    -10.35884260	     -1.25062186	      0.00000000	      0.00000000	      2.43796299	     -5.92424560	      0.82146825	    -46.90477341	     -1.80086533	      0.00000000	      0.00000000	     -9.33609703	      6.91769754	     -2.26637683
